<?xml version="1.0" encoding="utf-8"?>
<!-- Generator: Adobe Illustrator 15.1.0, SVG Export Plug-In . SVG Version: 6.00 Build 0)  -->
<!DOCTYPE svg PUBLIC "-//W3C//DTD SVG 1.1//EN" "http://www.w3.org/Graphics/SVG/1.1/DTD/svg11.dtd">
<svg version="1.1" id="main" xmlns="http://www.w3.org/2000/svg" xmlns:xlink="http://www.w3.org/1999/xlink" x="0px" y="0px"
	 width="236px" height="193px" viewBox="0 0 236 193" enable-background="new 0 0 236 193" xml:space="preserve">
<path fill="#E1AB35" d="M44.246,0.419c-20.365,0-36.87,16.505-36.87,36.87c0,5.502,1.209,10.73,3.37,15.411l33.5,65.705l33.5-65.705
	c2.16-4.681,3.37-9.909,3.37-15.411C81.116,16.925,64.611,0.419,44.246,0.419z M44.246,59.412c-12.213,0-22.122-9.909-22.122-22.123
	c0-12.213,9.909-22.122,22.122-22.122s22.123,9.909,22.123,22.122C66.368,49.503,56.459,59.412,44.246,59.412z"/>
<path fill="#fff" d="M191.728,74.16l-29.496,29.496L117.987,74.16l-44.245,29.496l-3.601-3.601l-7.029,13.826l0.202,0.202
	l1.916,1.915l-11.407,57.062L19.79,156.053l13.423-26.831l-8.325-16.333L0.001,162.649l58.993,29.496l58.993-29.496l58.993,29.496
	l58.993-29.496L191.728,74.16z M110.612,149.845L69.378,170.47l10.658-53.275l1.886-1.267l28.69-19.127V149.845z M125.36,149.845
	V96.801l28.69,19.127l1.901,1.267l10.657,53.275L125.36,149.845z M170.743,115.999l1.915-1.915l15.036-15.036l28.488,57.005
	l-34.019,17.009L170.743,115.999z"/>
</svg>
