<?xml version="1.0" encoding="UTF-8" standalone="no"?>
<svg
   xmlns:dc="http://purl.org/dc/elements/1.1/"
   xmlns:cc="http://creativecommons.org/ns#"
   xmlns:rdf="http://www.w3.org/1999/02/22-rdf-syntax-ns#"
   xmlns:svg="http://www.w3.org/2000/svg"
   xmlns="http://www.w3.org/2000/svg"
   xmlns:sodipodi="http://sodipodi.sourceforge.net/DTD/sodipodi-0.dtd"
   xmlns:inkscape="http://www.inkscape.org/namespaces/inkscape"
   viewBox="0 0 960 960"
   height="960"
   width="960"
   version="1.1"
   id="svg3337"
   inkscape:version="0.91 r13725"
   sodipodi:docname="hotm-logo-text.svg"
   inkscape:export-filename="C:\Users\Reid\Documents\shazbot\hotm\images\ios\splash\test.png"
   inkscape:export-xdpi="111.65789"
   inkscape:export-ydpi="111.65789">
  <sodipodi:namedview
     pagecolor="#ffffff"
     bordercolor="#666666"
     borderopacity="1"
     objecttolerance="10"
     gridtolerance="10"
     guidetolerance="10"
     inkscape:pageopacity="0"
     inkscape:pageshadow="2"
     inkscape:window-width="1366"
     inkscape:window-height="706"
     id="namedview7"
     showgrid="false"
     inkscape:zoom="0.49166667"
     inkscape:cx="236.67076"
     inkscape:cy="455.03045"
     inkscape:window-x="-8"
     inkscape:window-y="-8"
     inkscape:window-maximized="1"
     inkscape:current-layer="svg3337"
     showguides="false" />
  <metadata
     id="metadata3343">
    <rdf:RDF>
      <cc:Work
         rdf:about="">
        <dc:format>image/svg+xml</dc:format>
        <dc:type
           rdf:resource="http://purl.org/dc/dcmitype/StillImage" />
        <dc:title />
      </cc:Work>
    </rdf:RDF>
  </metadata>
  <defs
     id="defs3341" />
  <g
     transform="scale(0.99783489,1.0021698)"
     style="font-style:normal;font-weight:normal;font-size:49.54502106px;line-height:125%;font-family:sans-serif;text-align:center;letter-spacing:0px;word-spacing:0px;text-anchor:middle;fill:#ffffff;fill-opacity:1;stroke:none;stroke-width:1px;stroke-linecap:butt;stroke-linejoin:miter;stroke-opacity:1"
     id="text3335">
    <path
       d="m 254.34975,803.77612 -6.77374,0 0,-25.11119 q 0,-9.09616 -0.72575,-12.14434 -2.51596,-10.49929 -13.25717,-10.49929 -6.14474,0 -11.03151,4.06424 -4.83838,4.01586 -6.38666,10.06384 -0.96767,3.77393 -0.96767,14.3216 l 0,19.30514 -6.77374,0 0,-72.96278 6.77374,0 0,29.75604 q 8.17686,-10.78959 19.74059,-10.78959 5.75767,0 10.35414,2.95141 4.64484,2.90303 6.82211,8.03172 2.22566,5.12868 2.22566,15.91827 l 0,27.09493 z"
       style="font-style:normal;font-variant:normal;font-weight:normal;font-stretch:normal;font-size:99.09004211px;font-family:'Levenim MT';-inkscape-font-specification:'Levenim MT';fill:#ffffff;fill-opacity:1"
       id="path3339" />
    <path
       d="m 320.58718,777.98755 -47.31936,0 q 0.19353,8.85424 5.51575,14.75706 5.61252,6.19313 14.32161,6.19313 8.41878,0 14.27322,-5.12868 2.66111,-2.32242 5.75768,-7.49949 l 5.70929,2.99979 q -5.32222,10.40252 -14.75706,14.03131 -4.59647,1.7902 -10.40252,1.7902 -11.85404,0 -19.64383,-7.83818 -7.74141,-7.83817 -7.74141,-19.69221 0,-10.01545 6.14474,-17.85362 7.7898,-9.96707 20.85343,-9.96707 13.45069,0 21.48241,10.20899 5.70929,7.25757 5.80605,17.99877 z m -7.4511,-5.85444 q -2.51596,-10.01545 -10.78959,-13.88615 -4.25778,-1.98374 -8.95101,-1.98374 -7.74141,0 -13.30554,4.98353 -4.06424,3.62879 -6.14475,10.88636 l 39.19089,0 z"
       style="font-style:normal;font-variant:normal;font-weight:normal;font-stretch:normal;font-size:99.09004211px;font-family:'Levenim MT';-inkscape-font-specification:'Levenim MT';fill:#ffffff;fill-opacity:1"
       id="path3341" />
    <path
       d="m 385.71179,803.77612 -6.67696,0 0,-9.04777 q -8.56394,10.40252 -21.14373,10.40252 -11.41858,0 -19.25675,-8.22525 -7.74141,-8.08009 -7.74141,-19.59544 0,-11.3702 7.88656,-19.45029 7.93494,-8.0801 19.30514,-8.0801 13.01524,0 20.95019,11.03151 l 0,-9.67676 6.67696,0 0,52.64158 z m -6.24151,-26.03049 q 0,-9.04777 -5.95121,-15.2409 -5.90282,-6.19312 -14.90221,-6.19312 -12.09595,0 -18.04716,10.59605 -2.85465,5.03192 -2.85465,10.64444 0,5.61252 2.85465,10.69282 2.85464,5.03192 7.64464,7.88656 4.83838,2.80626 10.35414,2.80626 5.56413,0 10.54767,-2.80626 4.98353,-2.80626 7.64464,-7.59626 2.70949,-4.78999 2.70949,-10.78959 z"
       style="font-style:normal;font-variant:normal;font-weight:normal;font-stretch:normal;font-size:99.09004211px;font-family:'Levenim MT';-inkscape-font-specification:'Levenim MT';fill:#ffffff;fill-opacity:1"
       id="path3343" />
    <path
       d="m 425.04783,751.56999 -3.53202,5.70929 q -2.12888,-0.91929 -3.5804,-0.91929 -8.12848,0 -11.32181,11.41858 -1.25798,4.49969 -1.25798,18.19231 l 0,17.80524 -6.91888,0 0,-52.64158 6.91888,0 0,7.69302 q 6.14474,-9.04777 13.69262,-9.04777 2.80626,0 5.99959,1.7902 z"
       style="font-style:normal;font-variant:normal;font-weight:normal;font-stretch:normal;font-size:99.09004211px;font-family:'Levenim MT';-inkscape-font-specification:'Levenim MT';fill:#ffffff;fill-opacity:1"
       id="path3345" />
    <path
       d="m 454.27165,756.9406 -10.7412,0 0,46.83552 -6.82212,0 0,-46.83552 -9.24131,0 0,-5.80606 9.24131,0 0,-19.54706 6.82212,0 0,19.54706 10.7412,0 0,5.80606 z"
       style="font-style:normal;font-variant:normal;font-weight:normal;font-stretch:normal;font-size:99.09004211px;font-family:'Levenim MT';-inkscape-font-specification:'Levenim MT';fill:#ffffff;fill-opacity:1"
       id="path3348" />
    <path
       d="m 549.87807,777.60048 q 0,11.61212 -7.88656,19.59544 -7.88656,7.93495 -19.49867,7.93495 -11.61212,0 -19.54706,-7.93495 -7.88656,-7.93494 -7.88656,-19.59544 0,-10.93474 7.25757,-18.96645 7.98333,-8.85424 20.17605,-8.85424 12.14433,0 20.12766,8.80585 7.25757,8.03172 7.25757,19.01484 z m -6.8705,0.14515 q 0,-8.70908 -5.95121,-14.99898 -5.90282,-6.33828 -14.56352,-6.33828 -8.66071,0 -14.61191,6.33828 -5.90283,6.2899 -5.90283,14.99898 0,5.61253 2.66111,10.49929 2.75788,5.03192 7.49949,7.74141 4.74161,2.70949 10.35414,2.70949 11.99918,0 17.75685,-10.30575 2.75788,-4.93515 2.75788,-10.64444 z"
       style="font-style:normal;font-variant:normal;font-weight:normal;font-stretch:normal;font-size:99.09004211px;font-family:'Levenim MT';-inkscape-font-specification:'Levenim MT';fill:#ffffff;fill-opacity:1"
       id="path3350" />
    <path
       d="m 584.08541,737.44192 q -3.72555,-1.59667 -6.38666,-1.59667 -4.06424,0 -4.93515,2.61273 -0.33869,1.06444 -0.33869,5.56414 l 0,7.11242 10.98313,0 0,5.80606 -11.03151,0 0,46.83552 -6.77373,0 0,-46.83552 -6.91889,0 0,-5.80606 6.91889,0 0,-8.22525 q 0,-4.59646 0.62899,-6.77373 0.96767,-3.43525 3.96747,-5.22545 2.46757,-1.45152 5.99959,-1.45152 3.2901,0 7.88656,1.35475 l 0,6.62858 z"
       style="font-style:normal;font-variant:normal;font-weight:normal;font-stretch:normal;font-size:99.09004211px;font-family:'Levenim MT';-inkscape-font-specification:'Levenim MT';fill:#ffffff;fill-opacity:1"
       id="path3352" />
    <path
       d="m 650.1293,756.9406 -10.7412,0 0,46.83552 -6.82212,0 0,-46.83552 -9.24131,0 0,-5.80606 9.24131,0 0,-19.54706 6.82212,0 0,19.54706 10.7412,0 0,5.80606 z"
       style="font-style:normal;font-variant:normal;font-weight:normal;font-stretch:normal;font-size:99.09004211px;font-family:'Levenim MT';-inkscape-font-specification:'Levenim MT';fill:#ffffff;fill-opacity:1"
       id="path3354" />
    <path
       d="m 706.25453,803.77612 -6.77373,0 0,-25.11119 q 0,-9.09616 -0.72576,-12.14434 -2.51596,-10.49929 -13.25716,-10.49929 -6.14475,0 -11.03151,4.06424 -4.83838,4.01586 -6.38666,10.06384 -0.96768,3.77393 -0.96768,14.3216 l 0,19.30514 -6.77373,0 0,-72.96278 6.77373,0 0,29.75604 q 8.17686,-10.78959 19.7406,-10.78959 5.75767,0 10.35413,2.95141 4.64485,2.90303 6.82212,8.03172 2.22565,5.12868 2.22565,15.91827 l 0,27.09493 z"
       style="font-style:normal;font-variant:normal;font-weight:normal;font-stretch:normal;font-size:99.09004211px;font-family:'Levenim MT';-inkscape-font-specification:'Levenim MT';fill:#ffffff;fill-opacity:1"
       id="path3356" />
    <path
       d="m 772.49197,777.98755 -47.31937,0 q 0.19354,8.85424 5.51576,14.75706 5.61252,6.19313 14.32161,6.19313 8.41878,0 14.27322,-5.12868 2.66111,-2.32242 5.75767,-7.49949 l 5.70929,2.99979 q -5.32222,10.40252 -14.75706,14.03131 -4.59646,1.7902 -10.40252,1.7902 -11.85403,0 -19.64383,-7.83818 -7.74141,-7.83817 -7.74141,-19.69221 0,-10.01545 6.14475,-17.85362 7.78979,-9.96707 20.85342,-9.96707 13.4507,0 21.48241,10.20899 5.70929,7.25757 5.80606,17.99877 z m -7.45111,-5.85444 q -2.51596,-10.01545 -10.78959,-13.88615 -4.25777,-1.98374 -8.951,-1.98374 -7.74141,0 -13.30555,4.98353 -4.06424,3.62879 -6.14474,10.88636 l 39.19088,0 z"
       style="font-style:normal;font-variant:normal;font-weight:normal;font-stretch:normal;font-size:99.09004211px;font-family:'Levenim MT';-inkscape-font-specification:'Levenim MT';fill:#ffffff;fill-opacity:1"
       id="path3358" />
    <path
       d="m 345.45646,927.63868 -6.91888,0 0,-28.73999 q 0,-6.62858 -0.58061,-9.2413 -1.06444,-5.03192 -4.74161,-7.4995 -2.95142,-1.93535 -7.01566,-1.93535 -5.03191,0 -9.09615,2.95141 -4.06424,2.90303 -5.95121,7.74141 -1.83858,4.79 -1.83858,16.11181 l 0,20.61151 -6.72535,0 0,-26.94979 q 0,-7.40272 -0.48384,-10.06383 -1.01606,-5.70929 -4.83838,-8.3704 -2.95142,-2.03212 -7.01566,-2.03212 -4.88676,0 -8.99938,2.95141 -3.91909,2.85465 -5.80606,7.4995 -1.98374,4.78999 -1.98374,14.66029 l 0,22.30494 -6.72535,0 0,-52.64159 6.72535,0 0,9.09616 q 7.35434,-10.45091 18.04716,-10.45091 8.0801,0 12.8701,5.46737 2.17727,2.51596 3.77393,7.16081 6.91889,-12.62818 19.40191,-12.62818 11.56373,0 15.86989,10.45091 2.03212,4.93515 2.03212,14.80544 l 0,28.73999 z"
       style="font-style:normal;font-variant:normal;font-weight:normal;font-stretch:normal;font-size:99.09004211px;font-family:'Levenim MT';-inkscape-font-specification:'Levenim MT';fill:#ffffff;fill-opacity:1"
       id="path3360" />
    <path
       d="m 411.9842,901.46303 q 0,11.61212 -7.88656,19.59545 -7.88657,7.93494 -19.49868,7.93494 -11.61211,0 -19.54706,-7.93494 -7.88656,-7.93495 -7.88656,-19.59545 0,-10.93474 7.25757,-18.96645 7.98333,-8.85424 20.17605,-8.85424 12.14434,0 20.12767,8.80586 7.25757,8.03171 7.25757,19.01483 z m -6.8705,0.14516 q 0,-8.70909 -5.95121,-14.99898 -5.90283,-6.33828 -14.56353,-6.33828 -8.6607,0 -14.61191,6.33828 -5.90283,6.28989 -5.90283,14.99898 0,5.61252 2.66111,10.49928 2.75788,5.03192 7.49949,7.74141 4.74162,2.7095 10.35414,2.7095 11.99919,0 17.75686,-10.30576 2.75788,-4.93514 2.75788,-10.64443 z"
       style="font-style:normal;font-variant:normal;font-weight:normal;font-stretch:normal;font-size:99.09004211px;font-family:'Levenim MT';-inkscape-font-specification:'Levenim MT';fill:#ffffff;fill-opacity:1"
       id="path3362" />
    <path
       d="m 469.70608,900.83405 q 0,8.90262 -1.69343,14.12807 -2.32242,7.11242 -8.46717,10.88635 -5.12868,3.14495 -12.82171,3.14495 -15.14413,0 -20.51473,-11.85403 -2.56435,-5.56414 -2.56435,-16.78918 l 0,-25.35312 6.82212,0 0,24.57898 q 0,9.09615 0.96768,12.38625 1.4999,5.03192 5.80606,7.83818 4.06424,2.61272 9.48322,2.61272 5.27384,0 9.24131,-2.46757 4.20939,-2.66111 5.80606,-7.45111 1.01606,-3.04818 1.01606,-12.91847 l 0,-24.57898 6.91888,0 0,25.83696 z"
       style="font-style:normal;font-variant:normal;font-weight:normal;font-stretch:normal;font-size:99.09004211px;font-family:'Levenim MT';-inkscape-font-specification:'Levenim MT';fill:#ffffff;fill-opacity:1"
       id="path3364" />
    <path
       d="m 530.62131,927.63868 -6.72535,0 0,-25.1112 q 0,-8.90262 -0.77414,-12.14434 -2.51596,-10.49928 -13.25717,-10.49928 -6.14474,0 -11.03151,4.06424 -4.83838,4.01585 -6.38666,10.06383 -0.96768,3.82232 -0.96768,14.32161 l 0,19.30514 -6.77373,0 0,-52.64159 6.77373,0 0,9.43484 q 8.0801,-10.78959 19.7406,-10.78959 5.75767,0 10.35413,2.95142 4.64485,2.90303 6.82212,8.08009 2.22566,5.12869 2.22566,15.86989 l 0,27.09494 z"
       style="font-style:normal;font-variant:normal;font-weight:normal;font-stretch:normal;font-size:99.09004211px;font-family:'Levenim MT';-inkscape-font-specification:'Levenim MT';fill:#ffffff;fill-opacity:1"
       id="path3366" />
    <path
       d="m 568.55421,880.80315 -10.7412,0 0,46.83553 -6.82212,0 0,-46.83553 -9.24131,0 0,-5.80606 9.24131,0 0,-19.54706 6.82212,0 0,19.54706 10.7412,0 0,5.80606 z"
       style="font-style:normal;font-variant:normal;font-weight:normal;font-stretch:normal;font-size:99.09004211px;font-family:'Levenim MT';-inkscape-font-specification:'Levenim MT';fill:#ffffff;fill-opacity:1"
       id="path3368" />
    <path
       d="m 631.21126,927.63868 -6.67697,0 0,-9.04778 q -8.56393,10.40252 -21.14372,10.40252 -11.41858,0 -19.25676,-8.22525 -7.74141,-8.08009 -7.74141,-19.59544 0,-11.37019 7.88656,-19.45029 7.93495,-8.0801 19.30514,-8.0801 13.01525,0 20.95019,11.03151 l 0,-9.67676 6.67697,0 0,52.64159 z m -6.24151,-26.03049 q 0,-9.04778 -5.95121,-15.2409 -5.90283,-6.19313 -14.90222,-6.19313 -12.09595,0 -18.04716,10.59605 -2.85464,5.03192 -2.85464,10.64444 0,5.61252 2.85464,10.69282 2.85465,5.03192 7.64464,7.88656 4.83839,2.80626 10.35414,2.80626 5.56414,0 10.54767,-2.80626 4.98353,-2.80626 7.64464,-7.59625 2.7095,-4.79 2.7095,-10.78959 z"
       style="font-style:normal;font-variant:normal;font-weight:normal;font-stretch:normal;font-size:99.09004211px;font-family:'Levenim MT';-inkscape-font-specification:'Levenim MT';fill:#ffffff;fill-opacity:1"
       id="path3370" />
    <path
       d="m 654.48384,858.93367 q 0,2.32242 -1.64505,3.96747 -1.64505,1.59666 -3.96747,1.59666 -2.27404,0 -3.91909,-1.64505 -1.64505,-1.64504 -1.64505,-3.91908 0,-2.32243 1.59667,-3.96748 1.64505,-1.64505 3.96747,-1.64505 2.32242,0 3.96747,1.64505 1.64505,1.64505 1.64505,3.96748 z m -2.17727,68.70501 -6.82212,0 0,-52.64159 6.82212,0 0,52.64159 z"
       style="font-style:normal;font-variant:normal;font-weight:normal;font-stretch:normal;font-size:99.09004211px;font-family:'Levenim MT';-inkscape-font-specification:'Levenim MT';fill:#ffffff;fill-opacity:1"
       id="path3372" />
    <path
       d="m 712.35089,927.63868 -6.72535,0 0,-25.1112 q 0,-8.90262 -0.77414,-12.14434 -2.51596,-10.49928 -13.25716,-10.49928 -6.14475,0 -11.03151,4.06424 -4.83838,4.01585 -6.38667,10.06383 -0.96767,3.82232 -0.96767,14.32161 l 0,19.30514 -6.77373,0 0,-52.64159 6.77373,0 0,9.43484 q 8.08009,-10.78959 19.74059,-10.78959 5.75768,0 10.35414,2.95142 4.64484,2.90303 6.82212,8.08009 2.22565,5.12869 2.22565,15.86989 l 0,27.09494 z"
       style="font-style:normal;font-variant:normal;font-weight:normal;font-stretch:normal;font-size:99.09004211px;font-family:'Levenim MT';-inkscape-font-specification:'Levenim MT';fill:#ffffff;fill-opacity:1"
       id="path3374" />
  </g>
  <path
     inkscape:connector-curvature="0"
     id="path3351"
     d="M 466.77221,692.97698 C 428.31403,689.82036 386.44533,676.69723 352.07941,657.02793 277.4728,614.32703 226.15081,539.69964 213.86744,456.0536 c -2.25819,-15.37758 -2.70615,-22.60693 -2.7015,-43.59875 0.006,-22.29713 0.39611,-27.60396 3.35755,-45.54988 11.09749,-67.24941 47.70166,-129.15091 101.94232,-172.39525 16.33985,-13.02725 31.92294,-22.84609 51.35824,-32.36064 28.1403,-13.77607 53.29649,-21.42509 86.14469,-26.19327 12.17196,-1.76686 54.96174,-2.2705 67.84387,-0.79852 51.01371,5.82909 97.14948,24.19395 138.14367,54.9897 11.04283,8.2956 18.31718,14.78216 31.21337,27.83304 22.76368,23.03669 39.28113,46.30457 52.72359,74.27096 20.71592,43.09842 29.49116,88.54059 26.85901,139.08876 -2.78321,53.45045 -22.18511,106.29861 -55.13485,150.17987 -12.00769,15.99142 -30.94701,35.87133 -45.56827,47.83136 -37.63091,30.78168 -82.10435,51.62424 -127.45882,59.73366 -15.33943,2.74282 -22.08663,3.38912 -41.281,3.95447 -21.48015,0.63276 -26.17428,0.62434 -34.5371,-0.062 z"
     style="fill:#ffffff"
     inkscape:export-filename="C:\Users\Reid\Documents\shazbot\hotm\images\android\drawable-xxhdpi-icon.png"
     inkscape:export-xdpi="14.820513"
     inkscape:export-ydpi="14.820513" />
  <path
     inkscape:connector-curvature="0"
     id="path4159"
     d="m 456.88824,695.55468 c -35.1625,-5.01267 -61.42075,-12.9531 -91.03744,-27.5295 -27.93355,-13.74801 -51.87028,-30.827 -73.52805,-52.46268 -44.9759,-44.93003 -71.74919,-98.57264 -81.11822,-162.52738 -2.00194,-13.66561 -2.75377,-45.35674 -1.44455,-60.89117 6.78856,-80.54957 47.19263,-153.59427 111.83968,-202.18998 80.53414,-60.53816 187.1058,-73.32474 280.13233,-33.61057 80.27958,34.27234 142.04401,106.88967 162.51556,191.07185 5.85137,24.06174 6.52759,30.17587 6.94703,62.8125 0.4166,32.41557 -0.0533,39.29229 -4.09911,60 -7.34953,37.6163 -22.98626,74.46509 -45.15333,106.40625 -13.55953,19.53832 -36.11575,43.78025 -54.10388,58.14725 -30.96517,24.7317 -69.30704,44.0661 -105.92014,53.41166 -26.26063,6.70307 -32.15342,7.34988 -68.93613,7.56662 -18.30469,0.10786 -34.54688,0.0156 -36.09375,-0.20485 z M 752.65725,501.5593 C 776.41901,428.52149 769.2724,350.38363 732.68545,283.1965 694.28289,212.67524 625.41435,161.50889 547.35699,145.50547 c -21.51676,-4.4114 -33.56284,-5.60094 -56.71875,-5.60094 -23.15591,0 -35.20199,1.18954 -56.71875,5.60094 -77.98847,15.9893 -146.9598,67.23202 -185.32846,137.69103 -32.54601,59.76647 -41.87841,128.33464 -26.55376,195.09908 2.74281,11.94954 9.59009,33.35695 10.39568,32.5012 0.37552,-0.3989 23.11658,-46.49872 50.53569,-102.44403 27.41911,-55.94531 50.21714,-102.09609 50.6623,-102.55729 0.4618,-0.47844 9.17512,16.22956 20.28983,38.90625 10.71425,21.85963 24.15289,49.18607 29.86366,60.72542 l 10.38321,20.98064 45.86019,-85.90251 c 30.81198,-57.71513 46.34104,-85.90251 47.3256,-85.90251 0.98481,0 16.97641,29.04745 48.75985,88.56839 26.01194,48.71261 47.60739,88.25543 47.98989,87.87293 0.3825,-0.3825 14.32851,-28.47045 30.99113,-62.41768 16.66261,-33.94721 30.663,-61.78299 31.11198,-61.8573 0.44898,-0.0743 23.63104,46.37663 51.51569,103.22428 27.88465,56.84766 50.78915,103.35938 50.89891,103.35938 0.10975,0 1.92612,-5.30706 4.03637,-11.79345 z"
     style="fill:#baa8a2" />
  <path
     inkscape:connector-curvature="0"
     id="path4157"
     d="M 454.07574,694.82697 C 363.55034,681.98137 287.85404,630.08356 243.3964,550.384 c -16.56882,-29.70305 -27.94023,-66.18459 -32.72882,-105 -1.49029,-12.08 -1.49155,-47.90483 -0.002,-60 7.17928,-58.30013 28.18944,-107.47958 64.43883,-150.83492 37.94995,-45.38926 89.49812,-77.70917 146.62769,-91.9333 25.3912,-6.32191 41.87105,-8.33921 68.4375,-8.37745 36.97745,-0.0532 67.04191,5.39797 101.20865,18.35084 84.07827,31.87471 149.4343,104.99761 171.61854,192.01358 6.53131,25.61856 8.42281,41.51381 8.42281,70.78125 0,39.47727 -4.36174,63.52513 -18.64099,102.77466 -8.23944,22.64785 -24.07738,50.22467 -41.50694,72.27137 -9.78854,12.38155 -33.20574,35.79875 -45.58729,45.58729 -32.13318,25.40367 -70.73382,44.12883 -110.35853,53.53489 -22.02377,5.22798 -29.14853,5.94365 -61.875,6.21527 -21.36763,0.17735 -33.54746,-0.11358 -39.375,-0.94051 z m 72.1875,-5.68896 c 54.93116,-7.43038 103.35196,-29.3083 146.01563,-65.97409 4.51171,-3.87745 8.20312,-7.63818 8.20312,-8.3572 0,-1.03621 -80.68219,-153.15116 -93.3459,-175.99061 l -3.12187,-5.63039 30.65577,-62.49172 c 16.86066,-34.37044 31.04149,-62.56219 31.51295,-62.64834 0.47147,-0.0862 23.64227,46.28082 51.49067,103.0377 27.84841,56.75687 50.77916,103.04861 50.95723,102.87053 0.87979,-0.87978 7.87099,-22.88576 10.01968,-31.53864 10.15579,-40.89779 10.69897,-86.11212 1.53171,-127.5 -8.68622,-39.21608 -28.44158,-80.27477 -54.06912,-112.37488 -9.57107,-11.98837 -31.251,-33.5865 -43.28036,-43.11706 -33.30389,-26.38582 -75.59339,-46.31335 -115.47576,-54.41412 -22.29358,-4.5282 -29.4935,-5.18659 -56.71875,-5.18659 -27.93435,0 -35.58728,0.73961 -58.59375,5.66273 -40.23917,8.61072 -81.46308,28.24804 -114.24988,54.4238 -11.59636,9.25811 -33.37313,31.03488 -42.63124,42.63124 -25.62753,32.10011 -45.3829,73.1588 -54.06912,112.37488 -3.99112,18.01892 -5.6739,32.07739 -6.22808,52.03125 -0.97025,34.93549 3.08539,63.53209 13.46087,94.91346 1.91635,5.79616 3.79349,10.22584 4.1714,9.84375 0.37792,-0.38209 23.24762,-46.67909 50.82156,-102.88221 27.57393,-56.20313 50.44765,-102.1154 50.83048,-102.02726 0.38283,0.0881 13.96103,27.18117 30.17378,60.20676 l 29.47774,60.04653 -48.8475,91.4674 c -26.86613,50.30706 -48.84751,91.84809 -48.84751,92.31339 0,0.4653 3.69141,4.1501 8.20312,8.18842 48.0576,43.01523 101.45107,65.98374 167.10938,71.88619 9.05568,0.81408 44.11979,-0.31431 54.84375,-1.76492 z m -44.15231,-29.26759 c -1.46086,-1.91529 -3.3039,-4.16329 -4.09565,-4.99557 -1.58149,-1.66244 -3.31474,-3.75764 -8.90775,-10.76793 -2.04502,-2.56323 -3.94585,-4.87136 -4.22408,-5.12917 -0.27824,-0.25781 -1.7468,-2.15625 -3.26349,-4.21875 -1.51668,-2.0625 -3.0133,-3.96094 -3.32582,-4.21875 -1.98175,-1.63485 -19.99921,-26.22471 -26.56143,-36.25053 -12.44287,-19.01027 -17.82381,-30.01508 -21.26348,-43.48695 -2.5022,-9.80014 -2.54949,-25.23245 -0.10329,-33.703 1.89086,-6.54756 4.83426,-13.39609 5.97542,-13.90327 0.38672,-0.17188 0.70313,-0.87004 0.70313,-1.55148 0,-2.22218 11.59355,-13.1355 16.72715,-15.74571 7.23549,-3.67895 15.1729,-3.57878 23.00156,0.29026 5.86061,2.89641 16.00746,12.34826 23.61463,21.99716 5.5567,7.04811 5.38332,6.89471 6.47374,5.72715 0.53029,-0.56781 2.62373,-3.1412 4.65208,-5.71864 7.5789,-9.63055 17.74686,-19.10572 23.61463,-22.00567 7.82866,-3.86904 15.76607,-3.96921 23.00156,-0.29026 5.1336,2.61022 16.72715,13.52353 16.72715,15.74571 0,0.68144 0.31641,1.3796 0.70313,1.55148 0.94212,0.41872 3.55072,5.8065 5.59821,11.5625 1.33517,3.7535 1.65787,7.58291 1.61951,19.21875 -0.0437,13.24224 -0.26939,15.16929 -2.54489,21.72404 -5.43112,15.64475 -12.12151,27.64477 -29.18032,52.33846 -1.60292,2.32031 -3.13716,4.42969 -3.40944,4.6875 -0.27227,0.25781 -3.41612,4.26563 -6.98631,8.90625 -3.57021,4.64063 -6.72483,8.64844 -7.01029,8.90625 -0.28546,0.25781 -1.75994,2.15625 -3.27663,4.21875 -1.51668,2.0625 -3.00514,3.96094 -3.3077,4.21875 -0.30255,0.25781 -2.22329,2.56594 -4.26831,5.12917 -5.59301,7.01029 -7.32626,9.10549 -8.90775,10.76793 -0.79175,0.83228 -2.63479,3.08028 -4.09565,4.99557 -1.46086,1.91528 -3.18877,3.48233 -3.83981,3.48233 -0.65104,0 -2.37895,-1.56705 -3.83981,-3.48233 z"
     style="fill:#ec4538" />
  <path
     inkscape:connector-curvature="0"
     id="path4155"
     d="M 454.07574,694.82697 C 363.55034,681.98137 287.85404,630.08356 243.3964,550.384 c -16.56882,-29.70305 -27.94023,-66.18459 -32.72882,-105 -1.49029,-12.08 -1.49155,-47.90483 -0.002,-60 7.17928,-58.30013 28.18944,-107.47958 64.43883,-150.83492 37.94995,-45.38926 89.49812,-77.70917 146.62769,-91.9333 25.3912,-6.32191 41.87105,-8.33921 68.4375,-8.37745 36.97745,-0.0532 67.04191,5.39797 101.20865,18.35084 84.07827,31.87471 149.4343,104.99761 171.61854,192.01358 6.53131,25.61856 8.42281,41.51381 8.42281,70.78125 0,39.47727 -4.36174,63.52513 -18.64099,102.77466 -8.23944,22.64785 -24.07738,50.22467 -41.50694,72.27137 -9.78854,12.38155 -33.20574,35.79875 -45.58729,45.58729 -32.13318,25.40367 -70.73382,44.12883 -110.35853,53.53489 -22.02377,5.22798 -29.14853,5.94365 -61.875,6.21527 -21.36763,0.17735 -33.54746,-0.11358 -39.375,-0.94051 z m 72.1875,-5.68896 c 54.93116,-7.43038 103.35196,-29.3083 146.01563,-65.97409 4.51171,-3.87745 8.20312,-7.63818 8.20312,-8.3572 0,-1.03621 -80.68219,-153.15116 -93.3459,-175.99061 l -3.12187,-5.63039 30.65577,-62.49172 c 16.86066,-34.37044 31.04149,-62.56219 31.51295,-62.64834 0.47147,-0.0862 23.64227,46.28082 51.49067,103.0377 27.84841,56.75687 50.77916,103.04861 50.95723,102.87053 0.87979,-0.87978 7.87099,-22.88576 10.01968,-31.53864 10.15579,-40.89779 10.69897,-86.11212 1.53171,-127.5 -8.68622,-39.21608 -28.44158,-80.27477 -54.06912,-112.37488 -9.57107,-11.98837 -31.251,-33.5865 -43.28036,-43.11706 -33.30389,-26.38582 -75.59339,-46.31335 -115.47576,-54.41412 -22.29358,-4.5282 -29.4935,-5.18659 -56.71875,-5.18659 -27.93435,0 -35.58728,0.73961 -58.59375,5.66273 -40.23917,8.61072 -81.46308,28.24804 -114.24988,54.4238 -11.59636,9.25811 -33.37313,31.03488 -42.63124,42.63124 -25.62753,32.10011 -45.3829,73.1588 -54.06912,112.37488 -3.99112,18.01892 -5.6739,32.07739 -6.22808,52.03125 -0.97025,34.93549 3.08539,63.53209 13.46087,94.91346 1.91635,5.79616 3.79349,10.22584 4.1714,9.84375 0.37792,-0.38209 23.24762,-46.67909 50.82156,-102.88221 27.57393,-56.20313 50.44765,-102.1154 50.83048,-102.02726 0.38283,0.0881 13.96103,27.18117 30.17378,60.20676 l 29.47774,60.04653 -48.8475,91.4674 c -26.86613,50.30706 -48.84751,91.84809 -48.84751,92.31339 0,0.4653 3.69141,4.1501 8.20312,8.18842 48.0576,43.01523 101.45107,65.98374 167.10938,71.88619 9.05568,0.81408 44.11979,-0.31431 54.84375,-1.76492 z"
     style="fill:#785447" />
</svg>
