<?xml version="1.0"?>
<svg width="640" height="480" xmlns="http://www.w3.org/2000/svg">
    <!-- Created with SVG-edit - http://svg-edit.googlecode.com/ -->
    <title>New Zealand map illustration</title>
    <g>
        <title>Layer 1</title>
        <path
            id="path2703"
            d="m277.883911,-14.492271l0,0.802994l3.747498,0l-3.747498,-0.802994m26.233337,8.832687l2.998047,5.620834l1.499176,0c0.826691,
            -3.975861 -0.915192,-5.328163 -4.497223,-5.620834m-7.49527,4.014854c5.526306,4.170547 19.394012,16.687759 11.992493,23.286209c1.936951,
            4.475029 5.946716,10.615303 10.493317,12.04464l8.244751,-8.029793l-8.244751,12.044647c7.295959,5.505943 12.780121,13.585403 18.113068,
            21.106895c0.642395,0.905769 4.887665,8.401512 6.06076,4.389069c0.792877,-2.710861 -6.080933,-12.230026 -6.934723,-15.860275c4.729462,
            4.564064 4.611145,12.43 11.992371,13.65052l-3.74762,-6.42382l1.499084,-1.60598l3.74765,1.60598l-0.749603,-3.211861l2.248535,
            2.408882l2.998169,0l0,1.605965c-2.555817,0.211121 -3.673279,0.545189 -4.497101,3.211861l3.747528,0.802994l0,0.802986l-3.747528,
            4.817841l2.998047,7.226707c-2.755066,-3.452744 -4.548035,-6.103287 -8.994263,-6.423714c1.022278,4.026077 4.141144,7.00589 6.281067,
            10.43866c3.759552,6.02858 6.065186,21.103638 14.705597,20.074249l-2.998108,3.211868c1.574097,5.910706 2.1698,13.327026 8.994263,
            12.044647c-1.781555,1.37468 -5.469147,1.935135 -6.721558,3.695282c-2.052246,2.884232 0.627991,4.718231 2.97406,4.334427l0.749451,
            4.817825l-5.996216,0.802994c-0.585419,7.681213 -1.821289,21.440186 -8.248505,25.942413c-5.888214,
            4.125702 -23.334961,3.169312 -23.079376,14.203003c0.193451,8.342072 10.313507,8.42717 15.5849,10.424179c3.878845,
            1.470154 6.083099,5.385498 9.749878,7.297394c4.028687,2.101425 8.82196,1.544128 12.7388,3.74025c11.335144,
            6.353119 11.45282,19.02478 4.415588,29.128632c-4.150177,5.958832 -9.636658,9.99057 -13.879822,15.626587c-3.661346,
            4.86203 4.647949,5.242676 7.215698,5.250732c0.972229,5.977295 4.619385,1.163483 8.134705,2.308502c2.674347,0.871185 2.813019,
            4.892456 3.108185,7.327087c17.581635,-0.168671 28.704651,-18.07486 37.925293,-31.086243c4.785767,-6.753754 11.232452,
            -12.127258 16.026489,-18.834518c2.494324,-3.490509 2.480011,-7.375305 4.37262,-11.070602c1.584564,-3.092941 4.415375,
            -5.037018 6.134827,-8.064178l-7.495209,-0.802994c-1.124359,-17.075241 15.727386,-20.927078 28.481903,-17.665466l0.749512,
            6.423813l5.996185,-7.2267c-3.742371,-3.558807 -1.511658,-7.96315 -1.499084,-12.847534l11.992493,-6.423828c-1.720856,
            -10.5672 2.159454,-21.12381 8.244751,-28.907043l0,-0.802994c-8.504822,-6.580368 -20.394531,-7.995209 -28.939087,
            -0.330795c-3.47937,3.120331 -4.546509,7.376938 -9.286713,9.149948c-11.744995,4.393005 -23.687134,-5.316635 -34.478119,
            -8.850464c-5.252563,-1.719986 -8.704102,0.301987 -12.742004,-4.786514l7.49527,3.211945c-1.739563,-3.995621 -5.439972,
            -6.423035 -7.083771,-10.43866c-2.461395,-6.017517 -0.018616,-15.199448 -5.658203,-19.271362l-2.998047,2.408974l0,
            -0.802986l4.497101,-2.408958c-1.800262,-3.056931 -4.305847,-3.174126 -7.495239,-3.211876c-0.816833,-5.974968 -4.653015,
            -7.113556 -9.743805,-7.226707c0.511932,3.377159 3.126373,4.326347 4.062531,7.310173c0.821442,2.621727 -1.128876,5.143951 -0.142303,
            7.809746c0.948029,2.563904 4.014374,4.848389 3.044342,7.982353c-0.587585,1.89653 -2.854858,2.639389 -4.264008,1.27037c-1.981537,
            -1.926407 -0.85141,-5.410469 -3.243103,-7.254951c-1.975769,-1.523949 -4.741455,-0.870407 -6.952759,-1.796249c-6.981018,
            -2.923615 -16.346222,-11.794052 -8.244751,-19.33638c-1.591095,-4.400223 -5.163452,-11.258469 -9.743866,-12.044563c-0.035034,
            -4.12809 -0.18573,-6.858154 -4.497101,-7.226707l0,-0.802994l4.497101,-0.802986l-1.498932,-3.211861l3.747528,-0.802979c-1.944275,
            -7.718979 -7.796417,-15.169777 -14.990448,-12.044655l-2.998138,-3.211853l0,-0.802994l2.998138,0c-1.93219,-6.409889 -13.271698,
            -8.280869 -18.73819,-9.635681l0,2.408974l-4.497223,0l2.998169,-2.408974c-1.919312,-6.703423 -5.630432,0.221008 -7.49527,
            3.211952c-0.85141,-5.119621 -16.221832,-25.557716 -19.487671,-16.86248m60.711639,43.36055l0,3.211861l3.747559,0l-3.747559,
            -3.211861m32.229553,21.680229c0.42215,-2.8433 -0.728546,-13.758873 -5.786987,-11.100273c-6.0495,3.179024 3.230469,
            10.041214 5.786987,11.100273m-16.489502,-7.226707c1.427765,2.703568 2.634674,2.757347 5.246613,1.605988l-5.246613,
            -1.605988m-2.998138,9.635689l-1.499115,-3.21196c-3.182373,1.959251 -1.734375,4.022141 1.499115,3.21196m25.483856,
            4.014839c1.214264,2.361618 2.013214,2.809601 4.497101,2.408867l-1.498962,-3.211845l-2.998138,0.802979m-23.984802,
            6.42382l5.246582,4.817749l2.248596,-5.620743l-7.495178,0.802994m46.470612,28.906944l-0.749603,0.802994l0,1.605957l0.749603,
            0.802994l1.498962,0l0.749573,-0.802994l0,-1.605957l-0.749573,-0.802994l-1.498962,0m16.489594,9.635666l3.747559,0.802994l-3.747559,
            -0.802994m-142.409943,92.341843l0.749481,3.211884c-4.945984,-0.768433 -14.970154,5.846436 -16.251099,11.244812c-1.052368,
            4.435638 1.33194,9.378723 -0.044983,13.615936c-1.45697,4.482239 -6.993011,10.339935 -10.687531,12.76004c-3.100037,
            2.030823 -6.846893,1.328979 -9.496399,4.252686c-4.153152,4.584137 -4.003326,11.218292 -6.266861,16.743378c-3.197464,
            7.805115 -8.767288,14.552338 -14.966629,19.851318c-4.453522,3.806793 -10.837372,4.447662 -15.739929,7.66507c-7.48999,
            4.915833 -14.199661,12.959259 -21.765335,17.197998c-4.633698,2.596161 -10.239456,3.080383 -14.961426,5.730804c-4.506165,
            2.530304 -8.587204
            fill="#003f7f"/>
    </g>
</svg>
